<mxfile host="app.diagrams.net" modified="2023-04-23T09:48:56.480Z" agent="Mozilla/5.0 (Macintosh; Intel Mac OS X 10_15_7) AppleWebKit/537.36 (KHTML, like Gecko) Chrome/112.0.0.0 Safari/537.36" etag="fn7k76iggo4rAii0fo6Y" version="21.1.9" type="device">
  <diagram name="ページ1" id="LWYmuQIblQpF2mN8xn50">
    <mxGraphModel dx="1493" dy="848" grid="1" gridSize="10" guides="1" tooltips="1" connect="1" arrows="1" fold="1" page="1" pageScale="1" pageWidth="827" pageHeight="1169" math="0" shadow="0">
      <root>
        <mxCell id="0" />
        <mxCell id="1" parent="0" />
        <mxCell id="qkRn0kKSwU5tJo1CGjlU-10" style="edgeStyle=orthogonalEdgeStyle;orthogonalLoop=1;jettySize=auto;html=1;entryX=0;entryY=0.25;entryDx=0;entryDy=0;curved=1;" edge="1" parent="1" source="qkRn0kKSwU5tJo1CGjlU-2" target="qkRn0kKSwU5tJo1CGjlU-3">
          <mxGeometry relative="1" as="geometry" />
        </mxCell>
        <mxCell id="qkRn0kKSwU5tJo1CGjlU-2" value="" style="shape=image;verticalLabelPosition=bottom;labelBackgroundColor=default;verticalAlign=top;aspect=fixed;imageAspect=0;image=https://blog.since2020.jp/cms/wp-content/uploads/2023/01/logo_Whisper.jpg;" vertex="1" parent="1">
          <mxGeometry x="570" y="270" width="140.67" height="90" as="geometry" />
        </mxCell>
        <mxCell id="qkRn0kKSwU5tJo1CGjlU-11" style="edgeStyle=orthogonalEdgeStyle;orthogonalLoop=1;jettySize=auto;html=1;exitX=0;exitY=0.75;exitDx=0;exitDy=0;curved=1;" edge="1" parent="1" source="qkRn0kKSwU5tJo1CGjlU-3" target="qkRn0kKSwU5tJo1CGjlU-4">
          <mxGeometry relative="1" as="geometry" />
        </mxCell>
        <mxCell id="qkRn0kKSwU5tJo1CGjlU-3" value="" style="shape=image;verticalLabelPosition=bottom;labelBackgroundColor=default;verticalAlign=top;aspect=fixed;imageAspect=0;image=https://blogs.tees.ac.uk/lteonline/files/2023/03/ChatGPT.png;" vertex="1" parent="1">
          <mxGeometry x="800" y="320" width="110" height="110" as="geometry" />
        </mxCell>
        <mxCell id="qkRn0kKSwU5tJo1CGjlU-12" style="edgeStyle=orthogonalEdgeStyle;orthogonalLoop=1;jettySize=auto;html=1;curved=1;" edge="1" parent="1" source="qkRn0kKSwU5tJo1CGjlU-4" target="qkRn0kKSwU5tJo1CGjlU-6">
          <mxGeometry relative="1" as="geometry" />
        </mxCell>
        <mxCell id="qkRn0kKSwU5tJo1CGjlU-4" value="" style="shape=image;verticalLabelPosition=bottom;labelBackgroundColor=default;verticalAlign=top;aspect=fixed;imageAspect=0;image=https://voicebot.ai/wp-content/uploads/2018/03/google-text-to-speech-key.jpg;" vertex="1" parent="1">
          <mxGeometry x="570" y="405" width="153.85" height="90" as="geometry" />
        </mxCell>
        <mxCell id="qkRn0kKSwU5tJo1CGjlU-5" value="" style="outlineConnect=0;dashed=0;verticalLabelPosition=bottom;verticalAlign=top;align=center;html=1;shape=mxgraph.aws3.user;fillColor=#D2D3D3;gradientColor=none;" vertex="1" parent="1">
          <mxGeometry x="30" y="390" width="100" height="140" as="geometry" />
        </mxCell>
        <mxCell id="qkRn0kKSwU5tJo1CGjlU-9" style="edgeStyle=orthogonalEdgeStyle;orthogonalLoop=1;jettySize=auto;html=1;exitX=1;exitY=0.25;exitDx=0;exitDy=0;entryX=0;entryY=0.5;entryDx=0;entryDy=0;curved=1;" edge="1" parent="1" source="qkRn0kKSwU5tJo1CGjlU-6" target="qkRn0kKSwU5tJo1CGjlU-2">
          <mxGeometry relative="1" as="geometry" />
        </mxCell>
        <mxCell id="qkRn0kKSwU5tJo1CGjlU-6" value="" style="shape=image;html=1;verticalAlign=top;verticalLabelPosition=bottom;labelBackgroundColor=#ffffff;imageAspect=0;aspect=fixed;image=https://cdn2.iconfinder.com/data/icons/whcompare-isometric-web-hosting-servers/50/laptop-with-code-128.png" vertex="1" parent="1">
          <mxGeometry x="240" y="305" width="190" height="190" as="geometry" />
        </mxCell>
        <mxCell id="qkRn0kKSwU5tJo1CGjlU-7" value="" style="shape=callout;whiteSpace=wrap;html=1;perimeter=calloutPerimeter;position2=0.75;size=30;position=0.5;" vertex="1" parent="1">
          <mxGeometry x="160" y="235" width="150" height="110" as="geometry" />
        </mxCell>
        <mxCell id="qkRn0kKSwU5tJo1CGjlU-8" value="" style="shape=callout;whiteSpace=wrap;html=1;perimeter=calloutPerimeter;position2=0.08;size=30;position=0.17;" vertex="1" parent="1">
          <mxGeometry x="110" y="340" width="150" height="90" as="geometry" />
        </mxCell>
      </root>
    </mxGraphModel>
  </diagram>
</mxfile>
